<svg width="96" height="30" viewBox="0 0 96 30" fill="none" xmlns="http://www.w3.org/2000/svg">
<path d="M15.6749 5.42616L23.2589 5.65016C23.6429 5.65016 24.1229 5.56482 24.6989 5.39416C25.2962 5.20216 25.6909 5.10616 25.8829 5.10616C26.0749 5.10616 26.2242 5.17016 26.3309 5.29816C26.4589 5.40482 26.5229 5.54349 26.5229 5.71416C26.5229 6.16216 26.3202 6.54616 25.9149 6.86616C25.5095 7.16482 24.9762 7.37816 24.3149 7.50616C23.0776 7.78349 21.9789 7.92216 21.0189 7.92216C19.7175 8.81816 18.4482 11.3995 17.2109 15.6662C19.3229 15.6662 20.6349 15.6982 21.1469 15.7622L21.0829 17.2662C20.7629 17.2875 20.2829 17.2982 19.6429 17.2982L16.7309 17.2022C15.5362 20.8502 13.9255 23.7515 11.8989 25.9062C9.87222 28.0608 7.72822 29.1382 5.46688 29.1382C4.08022 29.1382 2.96022 28.7222 2.10688 27.8902C1.25355 27.0582 0.826882 25.9595 0.826882 24.5942C0.826882 22.3968 2.13888 20.4022 4.76288 18.6102C7.38688 16.7968 10.6189 15.8368 14.4589 15.7302C15.7602 11.6342 17.2855 9.03149 19.0349 7.92216L13.8829 7.73016C11.7282 7.73016 10.1175 8.00749 9.05088 8.56216C8.00555 9.11682 7.48288 9.85282 7.48288 10.7702C7.48288 11.2608 7.68555 11.6768 8.09088 12.0182C8.49622 12.3382 8.90155 12.4982 9.30688 12.4982C9.71222 12.4982 10.0109 12.4875 10.2029 12.4662C10.4162 12.4235 10.6722 12.3488 10.9709 12.2422C11.2909 12.1142 11.5149 12.0288 11.6429 11.9862C12.0909 11.8368 12.6349 11.6022 13.2749 11.2822L13.9469 12.1142C12.3255 13.7355 10.5549 14.5462 8.63488 14.5462C7.78155 14.5462 7.07755 14.2795 6.52288 13.7462C5.96822 13.2128 5.69088 12.5408 5.69088 11.7302C5.69088 9.95949 6.59755 8.46616 8.41088 7.25016C10.2242 6.03416 12.6455 5.42616 15.6749 5.42616ZM11.1949 23.3142C12.3469 21.5222 13.2642 19.5168 13.9469 17.2982C11.3015 17.5115 8.96555 18.3542 6.93888 19.8262C4.93355 21.2982 3.93088 22.8768 3.93088 24.5622C3.93088 25.2235 4.15488 25.7675 4.60288 26.1942C5.07222 26.6208 5.68022 26.8342 6.42688 26.8342C7.17355 26.8342 7.98422 26.5142 8.85888 25.8742C9.73355 25.2555 10.5122 24.4022 11.1949 23.3142ZM29.5851 22.2262L30.2571 22.7702C29.5318 23.9008 28.9025 24.7222 28.3691 25.2342C27.8571 25.7248 27.2811 25.9702 26.6411 25.9702C26.0011 25.9702 25.4785 25.7142 25.0731 25.2022C24.6678 24.6902 24.4651 24.0502 24.4651 23.2822C24.4651 21.7888 25.4465 18.5782 27.4091 13.6502C29.3718 8.70082 31.3878 4.34882 33.4571 0.594156L34.8651 1.36216C32.7745 5.41549 30.8865 9.44749 29.2011 13.4582C27.5158 17.4475 26.6731 20.3168 26.6731 22.0662C26.6731 23.0688 27.0465 23.5702 27.7931 23.5702C28.3905 23.5702 28.9878 23.1222 29.5851 22.2262ZM39.8086 11.7302C38.614 11.7302 38.0166 11.2502 38.0166 10.2902C38.0166 9.75682 38.166 9.30882 38.4646 8.94616C38.7633 8.58349 39.1473 8.40216 39.6166 8.40216C40.086 8.40216 40.47 8.54082 40.7686 8.81816C41.0673 9.09549 41.2166 9.45816 41.2166 9.90616C41.2166 10.3542 41.0886 10.7702 40.8326 11.1542C40.5766 11.5382 40.2353 11.7302 39.8086 11.7302ZM39.3926 21.1702L40.0326 21.7142C39.5206 22.6955 38.838 23.5382 37.9846 24.2422C37.1526 24.9248 36.3953 25.2662 35.7126 25.2662C34.518 25.2662 33.9206 24.4342 33.9206 22.7702C33.9206 20.7008 34.774 18.0022 36.4806 14.6742C36.8646 13.9488 37.0886 13.5222 37.1526 13.3942L38.5286 14.2262C38.0806 15.0368 37.526 16.3275 36.8646 18.0982C36.2246 19.8688 35.9046 21.0102 35.9046 21.5222C35.9046 22.0128 36.0113 22.3648 36.2246 22.5782C36.438 22.7915 36.694 22.8982 36.9926 22.8982C37.5686 22.8982 38.3686 22.3222 39.3926 21.1702ZM55.2511 21.4262L55.9231 21.9382C55.4538 22.8768 54.8031 23.6662 53.9711 24.3062C53.1605 24.9462 52.4245 25.2662 51.7631 25.2662C51.1018 25.2662 50.5791 25.0742 50.1951 24.6902C49.8111 24.3062 49.6191 23.8262 49.6191 23.2502C49.6191 22.6742 49.9818 21.6715 50.7071 20.2422C51.4538 18.7915 51.8271 17.7248 51.8271 17.0422C51.8271 16.7435 51.6991 16.4768 51.4431 16.2422C51.2085 15.9862 50.9205 15.8582 50.5791 15.8582C49.4911 15.8582 48.3925 16.6902 47.2831 18.3542C46.1738 19.9968 44.9365 22.3755 43.5711 25.4902L41.6511 24.8182C42.0565 22.3435 42.6325 19.9328 43.3791 17.5862C44.1471 15.2182 44.8511 13.5222 45.4911 12.4982L46.8031 12.9142C46.2058 14.4288 45.4485 17.0422 44.5311 20.7542C47.4751 15.7195 50.1845 13.2022 52.6591 13.2022C53.1925 13.2022 53.6298 13.3835 53.9711 13.7462C54.3338 14.1088 54.5151 14.5355 54.5151 15.0262C54.5151 15.5168 54.4511 15.9648 54.3231 16.3702C54.1951 16.7542 53.7898 17.6715 53.1071 19.1222C52.4458 20.5515 52.1151 21.4475 52.1151 21.8102C52.1151 22.1728 52.2218 22.4608 52.4351 22.6742C52.6485 22.8662 52.8511 22.9622 53.0431 22.9622C53.2351 22.9622 53.3951 22.9302 53.5231 22.8662C53.6511 22.8022 53.7898 22.7062 53.9391 22.5782C54.1098 22.4502 54.2591 22.3328 54.3871 22.2262C54.5151 22.1195 54.6645 21.9808 54.8351 21.8102C55.0271 21.6182 55.1658 21.4902 55.2511 21.4262ZM74.7349 1.65016L76.3669 2.22616L75.9189 3.05816C73.5722 7.43149 71.5776 11.6662 69.9349 15.7622C68.8469 18.4502 68.3029 20.4662 68.3029 21.8102C68.3029 22.1515 68.3882 22.4288 68.5589 22.6422C68.7295 22.8342 68.9962 22.9302 69.3589 22.9302C69.7429 22.9302 70.1802 22.6848 70.6709 22.1942L71.2469 22.7382C70.9695 23.3568 70.4895 23.9328 69.8069 24.4662C69.1242 24.9782 68.4629 25.2342 67.8229 25.2342C66.5855 25.2342 65.9669 24.5088 65.9669 23.0582C65.9669 22.2048 66.2015 20.8928 66.6709 19.1222C64.1535 23.5168 61.6895 25.7142 59.2789 25.7142C58.4469 25.7142 57.7855 25.4582 57.2949 24.9462C56.8042 24.4342 56.5589 23.7408 56.5589 22.8662C56.5589 21.4795 57.1135 20.0395 58.2229 18.5462C59.3322 17.0528 60.6975 15.8368 62.3189 14.8982C63.9402 13.9382 65.4549 13.4582 66.8629 13.4582L66.9589 14.5782C65.1242 14.8128 63.4069 15.6128 61.8069 16.9782C60.2282 18.3222 59.4389 19.6982 59.4389 21.1062C59.4389 21.7035 59.5989 22.1835 59.9189 22.5462C60.2389 22.8875 60.6549 23.0582 61.1669 23.0582C62.2122 23.0582 63.5775 21.9382 65.2629 19.6982C65.8815 18.8875 66.5855 17.7035 67.3749 16.1462C68.1855 14.5888 68.8255 13.3408 69.2949 12.4022C69.7855 11.4422 70.2549 10.5142 70.7029 9.61816C71.1722 8.70082 71.7802 7.50616 72.5269 6.03415C73.2735 4.54082 74.0095 3.07949 74.7349 1.65016ZM83.6819 15.7942C84.2365 16.7115 84.5139 17.7248 84.5139 18.8342C84.5139 20.5622 83.9165 22.1088 82.7219 23.4742C81.5272 24.8182 80.1192 25.4902 78.4979 25.4902C77.2605 25.4902 76.2899 25.1382 75.5859 24.4342C74.9032 23.7088 74.5619 22.7168 74.5619 21.4582C74.5619 19.4315 75.3512 17.6182 76.9299 16.0182C78.5085 14.3968 80.2792 13.5862 82.2419 13.5862C82.6045 13.5862 82.8605 13.5968 83.0099 13.6182L83.1059 14.6742C81.3992 14.6742 79.9805 15.1648 78.8499 16.1462C77.7192 17.1275 77.1539 18.3862 77.1539 19.9222C77.1539 20.8395 77.3779 21.5862 77.8259 22.1622C78.2739 22.7168 78.9245 22.9942 79.7779 22.9942C80.6525 22.9942 81.3459 22.6102 81.8579 21.8422C82.3699 21.0742 82.6259 20.1782 82.6259 19.1542C82.6259 18.1088 82.4232 17.1595 82.0179 16.3062L83.6819 15.7942ZM94.1156 13.9702C94.649 13.9702 95.0863 14.1515 95.4276 14.5142C95.769 14.8768 95.9396 15.3462 95.9396 15.9222C95.9396 17.0742 95.2783 18.2902 93.9556 19.5702L93.1876 18.9622C93.4863 18.3008 93.6356 17.8208 93.6356 17.5222C93.6356 16.9462 93.3156 16.6582 92.6756 16.6582C92.0356 16.6582 91.4276 17.0635 90.8516 17.8742C90.2756 18.6848 89.593 19.9435 88.8036 21.6502C88.0356 23.3355 87.449 24.5302 87.0436 25.2342L85.2196 24.4342C86.393 21.7675 87.065 20.1995 87.2356 19.7302C87.8116 18.0662 88.0996 15.9542 88.0996 13.3942L89.8916 12.9142C89.8276 14.3008 89.7316 15.3782 89.6036 16.1462C89.4756 16.8928 89.1663 18.1195 88.6756 19.8262C90.8303 15.9222 92.6436 13.9702 94.1156 13.9702Z" fill="black"/>
</svg>
